<svg width="50" height="51" viewBox="0 0 50 51" fill="none" xmlns="http://www.w3.org/2000/svg">
<path d="M25 0C11.1926 0 0 11.4165 0 25.5C0 39.5835 11.1926 51 25 51C38.8074 51 50 39.5835 50 25.5C50 11.4165 38.8074 0 25 0ZM36.4754 26.1772C35.8566 27.0927 35.0082 27.3561 33.9303 27.3226C31.5656 27.2557 29.1967 27.3017 26.7664 27.3017C26.7664 29.835 26.7213 32.2262 26.7869 34.6089C26.8197 35.7084 26.5574 36.5737 25.6639 37.2049H24.3402C23.4385 36.5779 23.1844 35.7084 23.2172 34.6089C23.2828 32.1969 23.2377 29.7807 23.2377 27.3017C20.7541 27.3017 18.4139 27.2557 16.0738 27.3226C15 27.3519 14.1434 27.1011 13.5287 26.1772V24.827C14.1434 23.8989 15 23.6523 16.0738 23.6816C18.4385 23.7484 20.8074 23.7025 23.2377 23.7025C23.2377 21.1692 23.2828 18.778 23.2172 16.3952C23.1885 15.3 23.4303 14.4221 24.3402 13.7993H25.6639C26.5697 14.4263 26.8156 15.3 26.7869 16.3952C26.7213 18.8073 26.7664 21.2235 26.7664 23.7025C29.2541 23.7025 31.5943 23.7484 33.9303 23.6816C35.0082 23.6481 35.8607 23.9073 36.4754 24.827V26.1772Z" fill="#5B5368"/>
</svg>
