<svg width="171" height="40" viewBox="0 0 171 40" fill="none" xmlns="http://www.w3.org/2000/svg">
<path d="M3.2 7.15C2.33333 7.15 1.6 6.85 1 6.25C0.4 5.65 0.1 4.91666 0.1 4.05C0.1 3.18333 0.4 2.45 1 1.85C1.6 1.25 2.33333 0.949998 3.2 0.949998C4.03333 0.949998 4.73333 1.25 5.3 1.85C5.9 2.45 6.2 3.18333 6.2 4.05C6.2 4.91666 5.9 5.65 5.3 6.25C4.73333 6.85 4.03333 7.15 3.2 7.15ZM5.4 11.6V39H0.85V11.6H5.4ZM11.2047 2V39H6.65469V2H11.2047ZM24.4094 39.45C21.8427 39.45 19.5094 38.8667 17.4094 37.7C15.3427 36.5333 13.7094 34.8833 12.5094 32.75C11.3427 30.5833 10.7594 28.0833 10.7594 25.25C10.7594 22.45 11.3594 19.9833 12.5594 17.85C13.7927 15.6833 15.4594 14.0333 17.5594 12.9C19.6594 11.7333 22.0094 11.15 24.6094 11.15C27.2094 11.15 29.5594 11.7333 31.6594 12.9C33.7594 14.0333 35.4094 15.6667 36.6094 17.8C37.8427 19.9333 38.4594 22.4167 38.4594 25.25C38.4594 28.0833 37.826 30.5833 36.5594 32.75C35.326 34.8833 33.6427 36.5333 31.5094 37.7C29.376 38.8667 27.0094 39.45 24.4094 39.45ZM24.4094 35.45C26.0427 35.45 27.576 35.0667 29.0094 34.3C30.4427 33.5333 31.5927 32.3833 32.4594 30.85C33.3594 29.3167 33.8094 27.45 33.8094 25.25C33.8094 23.05 33.376 21.1833 32.5094 19.65C31.6427 18.1167 30.5094 16.9833 29.1094 16.25C27.7094 15.4833 26.1927 15.1 24.5594 15.1C22.8927 15.1 21.3594 15.4833 19.9594 16.25C18.5927 16.9833 17.4927 18.1167 16.6594 19.65C15.826 21.1833 15.4094 23.05 15.4094 25.25C15.4094 27.4833 15.8094 29.3667 16.6094 30.9C17.4427 32.4333 18.5427 33.5833 19.9094 34.35C21.276 35.0833 22.776 35.45 24.4094 35.45ZM48.1418 34.8L56.6418 11.6H61.4918L50.7418 39H45.4418L34.6918 11.6H39.5918L48.1418 34.8ZM84.4691 24.25C84.4691 25.1167 84.4191 26.0333 84.3191 27H62.4191C62.5858 29.7 63.5025 31.8167 65.1691 33.35C66.8691 34.85 68.9191 35.6 71.3191 35.6C73.2858 35.6 74.9191 35.15 76.2191 34.25C77.5525 33.3167 78.4858 32.0833 79.0191 30.55H83.9191C83.1858 33.1833 81.7191 35.3333 79.5191 37C77.3191 38.6333 74.5858 39.45 71.3191 39.45C68.7191 39.45 66.3858 38.8667 64.3191 37.7C62.2858 36.5333 60.6858 34.8833 59.5191 32.75C58.3525 30.5833 57.7691 28.0833 57.7691 25.25C57.7691 22.4167 58.3358 19.9333 59.4691 17.8C60.6025 15.6667 62.1858 14.0333 64.2191 12.9C66.2858 11.7333 68.6525 11.15 71.3191 11.15C73.9191 11.15 76.2191 11.7167 78.2191 12.85C80.2191 13.9833 81.7525 15.55 82.8191 17.55C83.9191 19.5167 84.4691 21.75 84.4691 24.25ZM79.7691 23.3C79.7691 21.5667 79.3858 20.0833 78.6191 18.85C77.8525 17.5833 76.8025 16.6333 75.4691 16C74.1691 15.3333 72.7191 15 71.1191 15C68.8191 15 66.8525 15.7333 65.2191 17.2C63.6191 18.6667 62.7025 20.7 62.4691 23.3H79.7691ZM120.475 11.6L111.925 39H107.225L100.625 17.25L94.025 39H89.325L80.725 11.6H85.375L91.675 34.6L98.475 11.6H103.125L109.775 34.65L115.975 11.6H120.475ZM143.491 24.25C143.491 25.1167 143.441 26.0333 143.341 27H121.441C121.607 29.7 122.524 31.8167 124.191 33.35C125.891 34.85 127.941 35.6 130.341 35.6C132.307 35.6 133.941 35.15 135.241 34.25C136.574 33.3167 137.507 32.0833 138.041 30.55H142.941C142.207 33.1833 140.741 35.3333 138.541 37C136.341 38.6333 133.607 39.45 130.341 39.45C127.741 39.45 125.407 38.8667 123.341 37.7C121.307 36.5333 119.707 34.8833 118.541 32.75C117.374 30.5833 116.791 28.0833 116.791 25.25C116.791 22.4167 117.357 19.9333 118.491 17.8C119.624 15.6667 121.207 14.0333 123.241 12.9C125.307 11.7333 127.674 11.15 130.341 11.15C132.941 11.15 135.241 11.7167 137.241 12.85C139.241 13.9833 140.774 15.55 141.841 17.55C142.941 19.5167 143.491 21.75 143.491 24.25ZM138.791 23.3C138.791 21.5667 138.407 20.0833 137.641 18.85C136.874 17.5833 135.824 16.6333 134.491 16C133.191 15.3333 131.741 15 130.141 15C127.841 15 125.874 15.7333 124.241 17.2C122.641 18.6667 121.724 20.7 121.491 23.3H138.791ZM147.546 16.7C148.48 15.0667 149.846 13.7333 151.646 12.7C153.446 11.6667 155.496 11.15 157.796 11.15C160.263 11.15 162.48 11.7333 164.446 12.9C166.413 14.0667 167.963 15.7167 169.096 17.85C170.23 19.95 170.796 22.4 170.796 25.2C170.796 27.9667 170.23 30.4333 169.096 32.6C167.963 34.7667 166.396 36.45 164.396 37.65C162.43 38.85 160.23 39.45 157.796 39.45C155.43 39.45 153.346 38.9333 151.546 37.9C149.78 36.8667 148.446 35.55 147.546 33.95V39H142.996V2H147.546V16.7ZM166.146 25.2C166.146 23.1333 165.73 21.3333 164.896 19.8C164.063 18.2667 162.93 17.1 161.496 16.3C160.096 15.5 158.546 15.1 156.846 15.1C155.18 15.1 153.63 15.5167 152.196 16.35C150.796 17.15 149.663 18.3333 148.796 19.9C147.963 21.4333 147.546 23.2167 147.546 25.25C147.546 27.3167 147.963 29.1333 148.796 30.7C149.663 32.2333 150.796 33.4167 152.196 34.25C153.63 35.05 155.18 35.45 156.846 35.45C158.546 35.45 160.096 35.05 161.496 34.25C162.93 33.4167 164.063 32.2333 164.896 30.7C165.73 29.1333 166.146 27.3 166.146 25.2Z" fill="#5B5368"/>
</svg>
